PathFileType	4	(X/Y/Z)	Walk5.trc
DataRate	CameraRate	NumFrames	NumMarkers	Units	OrigDataRate	OrigDataStartFrame	OrigNumFrames
200.000000	200.000000	6	61	mm	200.000000	628	813
Frame#	Times		RCAR		LToe		LMT5		LTB1		RWRU		LLFC		RWRR		RFHD		RACR1		RFA1		LMT1		LUA1		LFA1		LTH2		LElbow		STRN		LACR1		LCAR		LASI		RTH3		RTB2		LWRU		RPSI		RLFC		LFHD		LWRR		C7		LPSI		RToe		RMT1		RMT5		RMFC		CLAV		RTB3		RTB1		LMFC		RTB4		LTH1		LTH3		RTH2		RCAL		RASI		RLMAL		LTB2		RMMAL		LTB4		LBHD		RBHD		RTH4		RBack		LTB3		RUA1		LMMAL		LTH4		RElbow		RTH1		LCAL		T10		LElbowM		LLMAL		RElbowM
			X1	Y1	Z1	X2	Y2	Z2	X3	Y3	Z3	X4	Y4	Z4	X5	Y5	Z5	X6	Y6	Z6	X7	Y7	Z7	X8	Y8	Z8	X9	Y9	Z9	X10	Y10	Z10	X11	Y11	Z11	X12	Y12	Z12	X13	Y13	Z13	X14	Y14	Z14	X15	Y15	Z15	X16	Y16	Z16	X17	Y17	Z17	X18	Y18	Z18	X19	Y19	Z19	X20	Y20	Z20	X21	Y21	Z21	X22	Y22	Z22	X23	Y23	Z23	X24	Y24	Z24	X25	Y25	Z25	X26	Y26	Z26	X27	Y27	Z27	X28	Y28	Z28	X29	Y29	Z29	X30	Y30	Z30	X31	Y31	Z31	X32	Y32	Z32	X33	Y33	Z33	X34	Y34	Z34	X35	Y35	Z35	X36	Y36	Z36	X37	Y37	Z37	X38	Y38	Z38	X39	Y39	Z39	X40	Y40	Z40	X41	Y41	Z41	X42	Y42	Z42	X43	Y43	Z43	X44	Y44	Z44	X45	Y45	Z45	X46	Y46	Z46	X47	Y47	Z47	X48	Y48	Z48	X49	Y49	Z49	X50	Y50	Z50	X51	Y51	Z51	X52	Y52	Z52	X53	Y53	Z53	X54	Y54	Z54	X55	Y55	Z55	X56	Y56	Z56	X57	Y57	Z57	X58	Y58	Z58	X59	Y59	Z59	X60	Y60	Z60	X61	Y61	Z61

628	3.14	411.43	857.71	427.67	205.39	49.452	-36.101	122.9	116.67	-85.109	343.52	392.63	-17.833	349.63	893.35	423.43	376.71	530.15	-115.8	417.47	901.3	367.06	478.95	1705.2	156.78	344.15	1504.1	265.79	363.42	1038.1	395.97	173.71	90.87	-11.381	292.51	1366	-189.46	337.43	1070.7	-247.39	401.41	754.7	-150.76	250.01	1198.9	-238.92	447.28	1304.5	57.602	312.12	1547.3	-103.31	388.41	909.27	-259.99	361.13	1042.2	-103.27	298.6	651.2	245.68	362.41	278.92	194.11	314.16	940.76	-261.5	151.07	1081.1	115.13	320.98	513.82	233.54	479.7	1713.6	51.958	388.61	947.97	-204.03	225.15	1570.8	98.687	145.25	1083.7	6.0044	505.06	41.345	115.02	454.43	52.931	104.13	413.69	31.41	200.17	301.59	508.42	85.615	387.17	1479.6	63.734	347.49	199.34	125.08	365.04	370.42	141.2	423.13	517.07	15.937	356.73	284.49	132.67	321.31	819.09	-159.18	372.46	653.01	-141.46	342.2	743.83	263.03	233.77	40.615	124.68	374.78	1053	217.58	294.09	72.387	167.25	278.2	326.98	-70.089	320.86	105.44	75.101	277.11	339.69	-7.512	312.8	1708.4	30.466	308.15	1700.4	172.36	283.38	732.93	253.99	173.1	1446.7	212.13	212.4	282.83	0.9242	323.53	1324.3	337.54	134.21	224.5	48.733	347.02	735.75	-151.05	277.54	1166.3	382.52	269.93	819.54	265.12	30.582	256.36	12.182	169.42	1217	63.651	219.77	1170.1	-153.16	83.133	231.03	-42.858	248.54	1139.5	293.96
629	3.145	418.33	858.32	428.32	222.04	49.244	-34.894	138.34	114.59	-84.476	353.96	393.54	-17.222	356.41	893.85	424.11	385.6	531.22	-115.51	424.19	901.86	367.57	483.95	1705.2	156.75	348.83	1504.4	265.88	369.85	1038.5	396.42	189.3	90.012	-10.446	296.69	1366.1	-189.23	341.19	1070.8	-247.45	408.1	756.25	-150.58	253.89	1199.1	-238.55	451.81	1304.7	57.834	316.63	1547.5	-103.21	392.15	909.63	-260.47	365.84	1042.6	-102.65	300.85	651.26	246.01	363.16	278.65	194.34	317.76	940.8	-261.18	155.45	1081.3	115.42	322.53	513.74	233.9	484.69	1713.6	51.922	392.7	948.15	-204.4	229.86	1571.1	98.86	149.71	1083.9	6.2769	505.15	41.171	115.02	454.48	52.858	104.19	413.69	31.374	200.24	303.44	508.48	85.856	391.81	1479.8	63.844	348.03	199.24	125.25	366.19	370.16	141.5	431.62	518.92	16.41	357.56	284.3	132.88	327.29	819.91	-158.89	380.08	654.3	-141.09	344.89	743.65	263.47	233.78	40.627	124.64	379.06	1053.2	218.43	294.13	72.416	167.26	289.7	326.76	-69.453	320.96	105.43	75.071	288.32	339.75	-6.962	317.75	1708.6	30.5	313.15	1700.7	172.38	286.09	733.05	254.29	177.67	1447	212.36	224.36	281.91	1.437	328.94	1324.6	337.79	146.68	222.71	49.198	353.85	736.79	-150.72	283.63	1166.5	382.95	273.14	819.71	265.41	42.482	252.35	12.096	173.97	1217.2	64.107	223.94	1170.3	-152.69	95.924	227.98	-42.674	254.53	1139.5	294.48
630	3.15	425.24	858.93	428.94	238.88	48.979	-33.788	153.96	112.38	-83.892	364.34	394.38	-16.604	363.2	894.34	424.75	394.39	532.24	-115.21	430.93	902.41	368.07	488.94	1705.2	156.7	353.49	1504.8	265.97	376.28	1039	396.85	205.07	89.042	-9.5866	300.89	1366.2	-189	344.97	1070.9	-247.52	414.82	757.79	-150.35	257.79	1199.2	-238.19	456.35	1304.8	58.08	321.13	1547.6	-103.11	395.89	909.96	-260.96	370.57	1042.9	-102.04	303.13	651.31	246.34	363.92	278.38	194.56	321.38	940.83	-260.87	159.83	1081.4	115.67	324.08	513.65	234.24	489.64	1713.5	51.853	396.81	948.3	-204.81	234.55	1571.4	99.022	154.18	1084.1	6.5263	505.24	41.001	115.03	454.53	52.791	104.26	413.68	31.343	200.3	305.31	508.53	86.088	396.44	1480	63.954	348.57	199.13	125.41	367.36	369.89	141.79	439.94	520.73	16.901	358.39	284.11	133.07	333.33	820.73	-158.6	387.69	655.59	-140.72	347.59	743.47	263.89	233.8	40.638	124.6	383.35	1053.5	219.23	294.18	72.446	167.27	301.22	326.45	-68.826	321.06	105.41	75.039	299.55	339.69	-6.413	322.68	1708.8	30.511	318.14	1701	172.39	288.81	733.16	254.59	182.22	1447.2	212.58	236.4	280.84	1.9296	334.32	1324.9	338.03	159.29	220.71	49.617	360.7	737.84	-150.41	289.7	1166.7	383.35	276.36	819.87	265.69	54.537	248.05	12.008	178.54	1217.4	64.536	228.12	1170.5	-152.23	108.85	224.7	-42.507	260.52	1139.5	294.95
631	3.155	432.16	859.54	429.52	255.89	48.664	-32.786	169.75	110.05	-83.362	374.66	395.13	-15.986	370	894.8	425.35	403.09	533.21	-114.89	437.69	902.96	368.54	493.9	1705.2	156.61	358.14	1505.1	266.05	382.71	1039.5	397.25	221.02	87.97	-8.8086	305.11	1366.3	-188.77	348.78	1071	-247.6	421.55	759.31	-150.06	261.71	1199.3	-237.84	460.88	1304.9	58.34	325.62	1547.7	-103.01	399.63	910.24	-261.46	375.33	1043.2	-101.46	305.43	651.34	246.65	364.68	278.1	194.78	325.01	940.84	-260.58	164.21	1081.5	115.89	325.65	513.55	234.58	494.58	1713.4	51.753	400.93	948.44	-205.24	239.23	1571.6	99.173	158.66	1084.2	6.7543	505.32	40.835	115.06	454.58	52.729	104.31	413.67	31.317	200.36	307.19	508.57	86.308	401.07	1480.2	64.064	349.11	199.02	125.58	368.54	369.61	142.08	448.09	522.5	17.408	359.24	283.9	133.26	339.43	821.56	-158.31	395.28	656.87	-140.35	350.32	743.28	264.3	233.82	40.65	124.56	387.67	1053.7	219.97	294.23	72.479	167.26	312.76	326.05	-68.213	321.17	105.39	75.008	310.79	339.54	-5.8692	327.58	1709	30.5	323.11	1701.3	172.38	291.54	733.26	254.87	186.77	1447.5	212.8	248.51	279.64	2.3988	339.67	1325.3	338.28	172.03	218.51	49.986	367.56	738.89	-150.11	295.75	1166.8	383.73	279.59	820.02	265.97	66.756	243.49	11.914	183.11	1217.6	64.939	232.31	1170.7	-151.78	121.91	221.23	-42.36	266.53	1139.6	295.39
632	3.16	439.09	860.15	430.07	273.05	48.303	-31.888	185.7	107.63	-82.891	384.89	395.81	-15.376	376.81	895.25	425.91	411.68	534.13	-114.56	444.45	903.51	368.99	498.85	1705.1	156.5	362.77	1505.4	266.13	389.13	1039.9	397.62	237.13	86.803	-8.1144	309.35	1366.3	-188.55	352.6	1071	-247.69	428.31	760.81	-149.72	265.67	1199.4	-237.49	465.42	1305	58.614	330.12	1547.8	-102.92	403.36	910.49	-261.97	380.1	1043.6	-100.89	307.75	651.36	246.96	365.45	277.82	194.99	328.66	940.84	-260.3	168.6	1081.6	116.09	327.24	513.45	234.9	499.48	1713.3	51.625	405.08	948.55	-205.69	243.9	1571.9	99.312	163.16	1084.4	6.9625	505.4	40.671	115.11	454.63	52.673	104.37	413.66	31.295	200.41	309.08	508.62	86.514	405.68	1480.3	64.173	349.64	198.9	125.74	369.73	369.33	142.36	456.06	524.21	17.929	360.09	283.68	133.45	345.6	822.37	-158.02	402.85	658.15	-139.99	353.08	743.08	264.7	233.84	40.662	124.52	392	1054	220.65	294.28	72.513	167.26	324.32	325.57	-67.62	321.29	105.37	74.978	322.04	339.27	-5.3362	332.45	1709.2	30.468	328.06	1701.5	172.34	294.29	733.35	255.15	191.32	1447.7	213.02	260.69	278.31	2.8416	344.99	1325.6	338.52	184.91	216.1	50.299	374.44	739.93	-149.82	301.79	1167	384.09	282.82	820.16	266.24	79.143	238.68	11.804	187.68	1217.8	65.315	236.52	1170.8	-151.35	135.12	217.56	-42.241	272.55	1139.5	295.8
633	3.165	446.03	860.76	430.56	290.36	47.903	-31.091	201.8	105.11	-82.483	395.05	396.4	-14.78	383.65	895.68	426.42	420.16	535.01	-114.21	451.22	904.05	369.4	503.77	1705.1	156.36	367.39	1505.6	266.2	395.56	1040.3	397.97	253.38	85.55	-7.5048	313.61	1366.4	-188.32	356.46	1071.1	-247.79	435.08	762.29	-149.33	269.65	1199.5	-237.15	469.95	1305.1	58.903	334.62	1547.9	-102.83	407.1	910.68	-262.48	384.9	1043.9	-100.35	310.1	651.37	247.26	366.22	277.54	195.19	332.33	940.82	-260.03	173	1081.7	116.25	328.84	513.33	235.21	504.36	1713.2	51.474	409.24	948.63	-206.15	248.55	1572.1	99.441	167.68	1084.5	7.1524	505.47	40.508	115.17	454.68	52.621	104.42	413.64	31.278	200.46	310.98	508.66	86.704	410.29	1480.4	64.283	350.18	198.77	125.89	370.93	369.03	142.64	463.86	525.87	18.463	360.95	283.44	133.63	351.82	823.19	-157.73	410.4	659.42	-139.64	355.86	742.87	265.08	233.87	40.677	124.48	396.34	1054.2	221.27	294.33	72.549	167.25	335.88	325	-67.05	321.41	105.35	74.949	333.29	338.9	-4.8204	337.3	1709.3	30.416	332.98	1701.8	172.29	297.07	733.43	255.43	195.87	1447.9	213.25	272.92	276.87	3.2557	350.29	1325.8	338.76	197.93	213.51	50.554	381.32	740.97	-149.56	307.8	1167.1	384.43	286.06	820.31	266.5	91.704	233.63	11.669	192.24	1218	65.666	240.73	1170.9	-150.93	148.46	213.71	-42.156	278.58	1139.5	296.17
